<svg width="40" height="39" viewBox="0 0 40 39" fill="none" xmlns="http://www.w3.org/2000/svg">
<path fill-rule="evenodd" clip-rule="evenodd" d="M18.656 7.97872C19.2313 8.46947 19.7366 9.05122 20.125 9.70285C20.5134 9.05122 21.0188 8.46947 21.594 7.97872C22.92 6.84772 24.6831 6.13922 26.4446 6.13922C27.6764 6.13922 28.9959 6.48697 30.1334 7.07522C31.2676 7.66185 32.3011 8.5296 32.8666 9.62972L32.904 9.7126L36.3653 18.8126C37.0234 19.8963 37.4289 21.1144 37.5516 22.3763C37.6744 23.6383 37.5113 24.9117 37.0744 26.1019C36.6375 27.2922 35.9381 28.3687 35.0281 29.2515C34.118 30.1344 33.0208 30.8008 31.8178 31.2015C30.6149 31.6021 29.3372 31.7265 28.0795 31.5655C26.8219 31.4046 25.6167 30.9623 24.5534 30.2717C23.4901 29.581 22.5961 28.6597 21.9378 27.5761C21.2794 26.4925 20.8737 25.2745 20.7506 24.0126H19.4994C19.3773 25.2755 18.9722 26.4946 18.3141 27.5793C17.656 28.664 16.7619 29.5864 15.6982 30.278C14.6345 30.9696 13.4286 31.4125 12.1702 31.5738C10.9117 31.7352 9.6331 31.6108 8.42936 31.2099C7.22561 30.809 6.1277 30.142 5.21725 29.2584C4.30681 28.3747 3.60724 27.2973 3.17056 26.106C2.73388 24.9148 2.57132 23.6405 2.69497 22.3778C2.81862 21.1151 3.22529 19.8965 3.88476 18.8126L7.34601 9.7126L7.38338 9.63135C7.95051 8.5296 8.98238 7.66185 10.115 7.07522C11.2541 6.48697 12.5736 6.13922 13.8054 6.13922C15.5669 6.13922 17.33 6.84772 18.656 7.97872ZM5.09376 23.2017C5.09376 21.6095 5.72628 20.0824 6.85216 18.9566C7.97805 17.8307 9.50508 17.1982 11.0973 17.1982C12.6896 17.1982 14.2166 17.8307 15.3425 18.9566C16.4684 20.0824 17.1009 21.6095 17.1009 23.2017C17.1009 24.794 16.4684 26.321 15.3425 27.4469C14.2166 28.5728 12.6896 29.2053 11.0973 29.2053C9.50508 29.2053 7.97805 28.5728 6.85216 27.4469C5.72628 26.321 5.09376 24.794 5.09376 23.2017ZM23.1491 23.2017C23.1491 21.6095 23.7817 20.0824 24.9075 18.9566C26.0334 17.8307 27.5605 17.1982 29.1527 17.1982C30.7449 17.1982 32.272 17.8307 33.3979 18.9566C34.5237 20.0824 35.1563 21.6095 35.1563 23.2017C35.1563 24.794 34.5237 26.321 33.3979 27.4469C32.272 28.5728 30.7449 29.2053 29.1527 29.2053C27.5605 29.2053 26.0334 28.5728 24.9075 27.4469C23.7817 26.321 23.1491 24.794 23.1491 23.2017Z" fill="#6A1B9A"/>
</svg>
