<svg width="37" height="36" viewBox="0 0 37 36" fill="none" xmlns="http://www.w3.org/2000/svg">
<path d="M9.625 33C8.8 33 8.094 32.7065 7.507 32.1195C6.92 31.5325 6.626 30.826 6.625 30V6C6.625 5.175 6.919 4.469 7.507 3.882C8.095 3.295 8.801 3.001 9.625 3H27.625C28.45 3 29.1565 3.294 29.7445 3.882C30.3325 4.47 30.626 5.176 30.625 6V30C30.625 30.825 30.3315 31.5315 29.7445 32.1195C29.1575 32.7075 28.451 33.001 27.625 33H9.625ZM17.125 16.5L20.875 14.25L24.625 16.5V6H17.125V16.5Z" fill="#6A1B9A"/>
</svg>
