<svg width="36" height="35" viewBox="0 0 36 35" fill="none" xmlns="http://www.w3.org/2000/svg">
<path d="M18.125 2.33331L0.625 10.5L5.29167 12.6V16.5666C3.89167 17.0333 2.95833 18.4333 2.95833 19.8333C2.95833 21.2333 3.89167 22.6333 5.29167 23.1V23.3333L3.19167 28.2333C2.49167 30.3333 2.95833 32.6666 6.45833 32.6666C9.95833 32.6666 10.425 30.3333 9.725 28.2333L7.625 23.3333C9.025 22.6333 9.95833 21.4666 9.95833 19.8333C9.95833 18.2 9.025 17.0333 7.625 16.5666V13.7666L18.125 18.6666L35.625 10.5L18.125 2.33331ZM28.3917 17.5L17.8917 22.1666L12.2917 19.6V19.8333C12.2917 21.4666 11.5917 22.8666 10.425 24.0333L11.825 27.3V27.5333C12.0583 28.4666 12.2917 29.4 12.0583 30.3333C13.6917 31.0333 15.5583 31.5 17.8917 31.5C25.5917 31.5 28.3917 26.8333 28.3917 24.5V17.5Z" fill="#6A1B9A"/>
</svg>
