<svg width="34" height="33" viewBox="0 0 34 33" fill="none" xmlns="http://www.w3.org/2000/svg">
<path d="M18.5 12.375H15.75V9.625H18.5M18.5 23.375H15.75V15.125H18.5M17.125 2.75C15.3193 2.75 13.5313 3.10565 11.8631 3.79666C10.1949 4.48766 8.67909 5.50048 7.40228 6.77728C4.82366 9.35591 3.375 12.8533 3.375 16.5C3.375 20.1467 4.82366 23.6441 7.40228 26.2227C8.67909 27.4995 10.1949 28.5123 11.8631 29.2033C13.5313 29.8943 15.3193 30.25 17.125 30.25C20.7717 30.25 24.2691 28.8013 26.8477 26.2227C29.4263 23.6441 30.875 20.1467 30.875 16.5C30.875 14.6943 30.5193 12.9063 29.8283 11.2381C29.1373 9.56987 28.1245 8.05409 26.8477 6.77728C25.5709 5.50048 24.0551 4.48766 22.3869 3.79666C20.7187 3.10565 18.9307 2.75 17.125 2.75Z" fill="#6A1B9A"/>
</svg>
