<svg width="49" height="48" viewBox="0 0 49 48" fill="none" xmlns="http://www.w3.org/2000/svg">
<path fill-rule="evenodd" clip-rule="evenodd" d="M26.3528 2.99399C26.1767 2.69185 25.9245 2.44115 25.6213 2.26691C25.3181 2.09267 24.9745 2.00098 24.6248 2.00098C24.2751 2.00098 23.9315 2.09267 23.6283 2.26691C23.3251 2.44115 23.0728 2.69185 22.8968 2.99399L18.8148 9.99999L10.8848 11.72C10.5431 11.7942 10.2269 11.9566 9.96766 12.191C9.70838 12.4255 9.51507 12.7238 9.40702 13.0563C9.29897 13.3887 9.27994 13.7437 9.35183 14.0858C9.42373 14.4279 9.58403 14.7452 9.81676 15.006L15.2208 21.054L14.4048 29.124C14.3695 29.472 14.4261 29.8231 14.5689 30.1424C14.7118 30.4617 14.9358 30.7379 15.2188 30.9436C15.5017 31.1492 15.8336 31.277 16.1814 31.3143C16.5292 31.3516 16.8807 31.297 17.2008 31.156L19.2848 30.238L16.6748 41.55C16.607 41.8433 16.6064 42.1481 16.6728 42.4416C16.7393 42.7352 16.8712 43.01 17.0586 43.2455C17.2461 43.481 17.4843 43.6712 17.7554 43.8018C18.0266 43.9324 18.3238 44.0002 18.6248 44H30.6248C30.9256 43.9999 31.2225 43.9319 31.4934 43.8011C31.7644 43.6704 32.0023 43.4802 32.1895 43.2447C32.3767 43.0092 32.5084 42.7346 32.5748 42.4411C32.6411 42.1477 32.6404 41.8431 32.5728 41.55L29.9648 30.24L32.0488 31.16C32.369 31.3011 32.7207 31.3557 33.0687 31.3183C33.4166 31.281 33.7487 31.153 34.0317 30.9471C34.3147 30.7412 34.5388 30.4647 34.6814 30.1451C34.8241 29.8255 34.8804 29.4741 34.8448 29.126L34.0288 21.056L39.4328 15.008C39.6655 14.7472 39.8258 14.4299 39.8977 14.0878C39.9696 13.7457 39.9506 13.3907 39.8425 13.0583C39.7344 12.7258 39.5411 12.4275 39.2819 12.193C39.0226 11.9586 38.7064 11.7962 38.3648 11.722L30.4348 9.99999L26.3528 2.99399ZM23.8568 28.224L24.6248 27.884L25.3928 28.224L28.1108 40H21.1388L23.8568 28.224Z" fill="#6A1B9A"/>
</svg>
