<svg width="40" height="39" viewBox="0 0 40 39" fill="none" xmlns="http://www.w3.org/2000/svg">
<path fill-rule="evenodd" clip-rule="evenodd" d="M19.5514 22.0057L19.3012 25.5929L20.125 25.5937C27.0882 25.5937 31.743 25.4093 34.425 25.2541C36.657 25.1257 38.5395 23.5178 38.8085 21.2079C39.0197 19.396 39.2196 16.6993 39.2196 13C39.2196 9.30069 39.0189 6.60481 38.8085 4.79212C38.5404 2.48219 36.657 0.87425 34.425 0.745875C31.743 0.590687 27.0882 0.40625 20.125 0.40625C18.2536 0.406792 16.546 0.418708 15.0022 0.442C16.0772 1.14324 16.9601 2.10173 17.5709 3.23054C18.1817 4.35935 18.5011 5.62278 18.5 6.90625C18.5 8.40937 18.0694 9.81337 17.326 11.0004C19.5766 11.0411 21.815 11.1247 23.9755 11.2482C25.2665 11.3222 27.1946 12.1184 27.6683 14.2837C27.8714 15.2076 27.9348 16.4166 27.6594 17.9237C27.2913 19.9347 25.6314 21.1794 23.9487 21.4077L19.5514 22.0057ZM10.7813 12.1875C9.38062 12.1875 8.03732 11.6311 7.04689 10.6407C6.05646 9.65023 5.50005 8.30692 5.50005 6.90625C5.50005 5.50558 6.05646 4.16227 7.04689 3.17184C8.03732 2.18142 9.38062 1.625 10.7813 1.625C12.182 1.625 13.5253 2.18142 14.5157 3.17184C15.5061 4.16227 16.0625 5.50558 16.0625 6.90625C16.0625 8.30692 15.5061 9.65023 14.5157 10.6407C13.5253 11.6311 12.182 12.1875 10.7813 12.1875ZM23.8365 13.6825C17.9963 13.3469 11.5784 13.3169 5.91117 13.5931C4.30486 13.6703 2.95042 14.8184 2.67499 16.4174C2.3443 18.3357 1.94455 21.2347 1.86005 24.3986C1.83649 25.2907 2.43286 26.091 3.35749 26.2161C3.72067 26.2657 4.17405 26.3152 4.72899 26.3575C4.94836 26.3737 5.11411 26.5492 5.12224 26.7564L5.42774 35.0041C5.4773 36.3326 6.44824 37.4701 7.80105 37.6122C8.04209 37.6377 8.29749 37.6615 8.56724 37.6837C9.25705 37.7406 9.83474 37.2036 9.86155 36.5259L10.1419 29.2346C10.1459 29.1295 10.1904 29.0301 10.2662 28.9572C10.3419 28.8843 10.443 28.8437 10.5481 28.8437H11.0153C11.1203 28.8437 11.2212 28.8842 11.297 28.9569C11.3727 29.0296 11.4173 29.1288 11.4215 29.2337L11.7019 36.5381C11.7073 36.6998 11.7454 36.8586 11.8137 37.0052C11.882 37.1518 11.9792 37.2831 12.0994 37.3913C12.2196 37.4994 12.3604 37.5822 12.5134 37.6347C12.6664 37.6872 12.8284 37.7083 12.9897 37.6967C13.2838 37.6735 13.5603 37.6491 13.8192 37.6236C15.1412 37.4887 16.104 36.3992 16.1942 35.1057L17.2342 20.1882C17.2406 20.0949 17.2791 20.0067 17.343 19.9384C17.407 19.8702 17.4925 19.8261 17.5852 19.8136L23.6204 18.993C24.4102 18.8857 25.1097 18.3162 25.2617 17.4858C25.4835 16.2752 25.4169 15.3936 25.2877 14.8046C25.1276 14.0717 24.4589 13.7182 23.8365 13.6825Z" fill="#6A1B9A"/>
</svg>
